<svg width="61" height="42" viewBox="0 0 61 42" fill="none" xmlns="http://www.w3.org/2000/svg">
<path d="M55.9294 24.7176L60.9357 7.65507C61.2972 6.42313 60.0883 5.25 58.4573 5.25H16.8606L15.8899 1.57418C15.648 0.657973 14.6072 0 13.3998 0H2.54167C1.13793 0 0 0.881426 0 1.96875V3.28125C0 4.36857 1.13793 5.25 2.54167 5.25H9.94247L17.3819 33.4224C15.6021 34.2152 14.4028 35.7018 14.4028 37.4062C14.4028 39.9433 17.058 42 20.3333 42C23.6087 42 26.2639 39.9433 26.2639 37.4062C26.2639 36.1205 25.5811 34.9588 24.4822 34.125H46.6844C45.5855 34.9588 44.9028 36.1205 44.9028 37.4062C44.9028 39.9433 47.558 42 50.8333 42C54.1087 42 56.7639 39.9433 56.7639 37.4062C56.7639 35.5875 55.399 34.0157 53.4196 33.2715L54.0039 31.2801C54.3653 30.0481 53.1564 28.875 51.5254 28.875H23.0992L22.4061 26.25H53.4509C54.6377 26.25 55.6664 25.6139 55.9294 24.7176Z" fill="#FF9213"/>
</svg>
