<svg width="38" height="31" viewBox="0 0 38 31" fill="none" xmlns="http://www.w3.org/2000/svg">
<path d="M29.8571 9.6875V7.75C29.8571 3.4766 24.9866 0 19 0C13.0133 0 8.14286 3.4766 8.14286 7.75V9.6875H0V26.1562C0 28.8314 3.03805 31 6.78571 31H31.2143C34.9619 31 38 28.8314 38 26.1562V9.6875H29.8571ZM13.5714 7.75C13.5714 5.6133 16.0067 3.875 19 3.875C21.9933 3.875 24.4286 5.6133 24.4286 7.75V9.6875H13.5714V7.75ZM27.1429 15.0156C26.0185 15.0156 25.1071 14.365 25.1071 13.5625C25.1071 12.76 26.0185 12.1094 27.1429 12.1094C28.2672 12.1094 29.1786 12.76 29.1786 13.5625C29.1786 14.365 28.2672 15.0156 27.1429 15.0156ZM10.8571 15.0156C9.73283 15.0156 8.82143 14.365 8.82143 13.5625C8.82143 12.76 9.73283 12.1094 10.8571 12.1094C11.9815 12.1094 12.8929 12.76 12.8929 13.5625C12.8929 14.365 11.9815 15.0156 10.8571 15.0156Z" fill="#FF9213"/>
</svg>
