<svg width="8" height="32" viewBox="0 0 8 32" fill="none" xmlns="http://www.w3.org/2000/svg">
<path d="M4 11.3548C6.21111 11.3548 8 13.4323 8 16C8 18.5677 6.21111 20.6452 4 20.6452C1.78889 20.6452 0 18.5677 0 16C0 13.4323 1.78889 11.3548 4 11.3548ZM0 4.64516C0 7.2129 1.78889 9.29032 4 9.29032C6.21111 9.29032 8 7.2129 8 4.64516C8 2.07742 6.21111 0 4 0C1.78889 0 0 2.07742 0 4.64516ZM0 27.3548C0 29.9226 1.78889 32 4 32C6.21111 32 8 29.9226 8 27.3548C8 24.7871 6.21111 22.7097 4 22.7097C1.78889 22.7097 0 24.7871 0 27.3548Z" fill="#200055"/>
</svg>
