<svg width="35" height="25" viewBox="0 0 35 25" fill="none" xmlns="http://www.w3.org/2000/svg">
<path d="M17.036 6.48566L5.83379 14.9604V24.107C5.83379 24.3439 5.93622 24.571 6.11853 24.7385C6.30084 24.9059 6.54811 25 6.80594 25L13.6146 24.9838C13.8716 24.9826 14.1176 24.888 14.2989 24.7207C14.4802 24.5534 14.5819 24.3269 14.5819 24.0909V18.7493C14.5819 18.5125 14.6843 18.2853 14.8666 18.1179C15.049 17.9504 15.2962 17.8563 15.5541 17.8563H19.4426C19.7005 17.8563 19.9477 17.9504 20.1301 18.1179C20.3124 18.2853 20.4148 18.5125 20.4148 18.7493V24.087C20.4144 24.2045 20.4392 24.3209 20.4879 24.4295C20.5366 24.5382 20.6081 24.637 20.6984 24.7202C20.7888 24.8034 20.8961 24.8694 21.0142 24.9145C21.1324 24.9595 21.259 24.9827 21.3869 24.9827L28.1932 25C28.451 25 28.6983 24.9059 28.8806 24.7385C29.0629 24.571 29.1653 24.3439 29.1653 24.107V14.9542L17.9656 6.48566C17.8339 6.38817 17.6699 6.33501 17.5008 6.33501C17.3317 6.33501 17.1676 6.38817 17.036 6.48566ZM34.7309 12.2458L29.6514 8.39993V0.669718C29.6514 0.492097 29.5746 0.321752 29.4379 0.196156C29.3011 0.0705595 29.1157 0 28.9223 0H25.5198C25.3264 0 25.1409 0.0705595 25.0042 0.196156C24.8675 0.321752 24.7907 0.492097 24.7907 0.669718V4.72207L19.3509 0.611117C18.8289 0.21653 18.1738 0.000788785 17.4977 0.000788785C16.8217 0.000788785 16.1666 0.21653 15.6446 0.611117L0.264606 12.2458C0.190776 12.3018 0.129693 12.3707 0.0848477 12.4484C0.0400026 12.5262 0.0122738 12.6113 0.00324585 12.6989C-0.00578212 12.7865 0.00406762 12.8748 0.0322323 12.9589C0.0603969 13.043 0.106325 13.1212 0.167391 13.189L1.71675 14.9191C1.77765 14.9871 1.85256 15.0434 1.93718 15.0848C2.02181 15.1262 2.11449 15.1519 2.20993 15.1603C2.30536 15.1688 2.40167 15.1598 2.49335 15.1341C2.58503 15.1083 2.67027 15.0661 2.74419 15.01L17.036 4.19746C17.1676 4.09997 17.3317 4.04681 17.5008 4.04681C17.6699 4.04681 17.8339 4.09997 17.9656 4.19746L32.258 15.01C32.3318 15.0661 32.4169 15.1083 32.5084 15.1342C32.6 15.1601 32.6962 15.1691 32.7915 15.1608C32.8869 15.1525 32.9795 15.1271 33.0642 15.0859C33.1488 15.0447 33.2238 14.9886 33.2848 14.9208L34.8342 13.1906C34.8952 13.1225 34.9409 13.0439 34.9687 12.9594C34.9966 12.875 35.006 12.7863 34.9963 12.6985C34.9868 12.6107 34.9584 12.5255 34.9128 12.4478C34.8672 12.3701 34.8054 12.3015 34.7309 12.2458Z" fill="black"/>
</svg>
