<svg width="25" height="27" viewBox="0 0 25 27" fill="none" xmlns="http://www.w3.org/2000/svg">
<path d="M22.3214 0H2.67857C1.96817 0 1.28686 0.304782 0.784535 0.847298C0.282206 1.38981 0 2.12562 0 2.89286L0 24.1071C0 24.8744 0.282206 25.6102 0.784535 26.1527C1.28686 26.6952 1.96817 27 2.67857 27H10.3376V17.8206H6.82199V13.5H10.3376V10.207C10.3376 6.46132 12.4023 4.39232 15.5647 4.39232C17.0792 4.39232 18.6629 4.68402 18.6629 4.68402V8.36036H16.918C15.1987 8.36036 14.6624 9.51268 14.6624 10.6945V13.5H18.5006L17.8867 17.8206H14.6624V27H22.3214C23.0318 27 23.7131 26.6952 24.2155 26.1527C24.7178 25.6102 25 24.8744 25 24.1071V2.89286C25 2.12562 24.7178 1.38981 24.2155 0.847298C23.7131 0.304782 23.0318 0 22.3214 0Z" fill="#200055"/>
</svg>
