<svg width="38" height="26" viewBox="0 0 38 26" fill="none" xmlns="http://www.w3.org/2000/svg">
<path d="M37.2801 8.58542C37.5695 8.37552 38 8.57187 38 8.90365V22.75C38 24.5443 36.4043 26 34.4375 26H3.5625C1.5957 26 0 24.5443 0 22.75V8.91042C0 8.57188 0.423047 8.38229 0.719922 8.59219C2.38242 9.77031 4.58672 11.2667 12.157 16.2839C13.723 17.3266 16.3652 19.5203 19 19.5068C21.6496 19.5271 24.3438 17.2859 25.8504 16.2839C33.4207 11.2667 35.6176 9.76354 37.2801 8.58542ZM19 17.3333C20.7219 17.3604 23.2008 15.3563 24.4477 14.5302C34.2965 8.0099 35.0461 7.44115 37.3172 5.81615C37.7477 5.51146 38 5.0375 38 4.53646V3.25C38 1.45573 36.4043 0 34.4375 0H3.5625C1.5957 0 0 1.45573 0 3.25V4.53646C0 5.0375 0.252344 5.50469 0.682813 5.81615C2.95391 7.43437 3.70352 8.0099 13.5523 14.5302C14.7992 15.3563 17.2781 17.3604 19 17.3333Z" fill="#200055"/>
</svg>
